<svg width="1200" height="720" viewBox="0 0 1200 720" fill="none" xmlns="http://www.w3.org/2000/svg">
  <rect width="1200" height="720" fill="#f6f8fb"/>
  <rect x="36" y="32" width="1128" height="656" rx="18" fill="#ffffff" stroke="#d7dee9"/>
  <text x="76" y="88" font-family="Arial, sans-serif" font-size="30" font-weight="700" fill="#111827">决策中心</text>
  <text x="76" y="124" font-family="Arial, sans-serif" font-size="16" fill="#667085">把证据链、竞品威胁、客户缺口和下一步动作合并成产品判断</text>
  <rect x="76" y="164" width="326" height="444" rx="12" fill="#f9fafb" stroke="#d9e1ec"/>
  <text x="104" y="206" font-family="Arial, sans-serif" font-size="20" font-weight="700" fill="#111827">证据链结论</text>
  <rect x="104" y="236" width="250" height="34" rx="17" fill="#dcfce7"/>
  <text x="124" y="258" font-family="Arial, sans-serif" font-size="14" fill="#166534">客户定点概率上升</text>
  <text x="104" y="314" font-family="Arial, sans-serif" font-size="52" font-weight="700" fill="#16a34a">86</text>
  <text x="176" y="312" font-family="Arial, sans-serif" font-size="16" fill="#475467">机会评分</text>
  <line x1="104" y1="356" x2="354" y2="356" stroke="#d9e1ec"/>
  <text x="104" y="402" font-family="Arial, sans-serif" font-size="16" fill="#344054">来源：公开新闻、客户字段、产品画像</text>
  <text x="104" y="442" font-family="Arial, sans-serif" font-size="16" fill="#344054">判断：适合前向长距方案验证</text>
  <text x="104" y="482" font-family="Arial, sans-serif" font-size="16" fill="#344054">缺口：温度、可靠性、成本目标待确认</text>
  <rect x="438" y="164" width="326" height="444" rx="12" fill="#ffffff" stroke="#d9e1ec"/>
  <text x="466" y="206" font-family="Arial, sans-serif" font-size="20" font-weight="700" fill="#111827">竞品作战卡</text>
  <rect x="466" y="244" width="246" height="72" rx="10" fill="#eff6ff"/>
  <text x="488" y="274" font-family="Arial, sans-serif" font-size="16" font-weight="700" fill="#1d4ed8">Hesai / Luminar / Innoviz</text>
  <text x="488" y="298" font-family="Arial, sans-serif" font-size="14" fill="#475467">技术路线、公开客户、风险点</text>
  <rect x="466" y="346" width="246" height="72" rx="10" fill="#fff7ed"/>
  <text x="488" y="376" font-family="Arial, sans-serif" font-size="16" font-weight="700" fill="#c2410c">我方应答材料</text>
  <text x="488" y="400" font-family="Arial, sans-serif" font-size="14" fill="#475467">量产、车规、成本、售前证据</text>
  <rect x="466" y="448" width="246" height="72" rx="10" fill="#f5f3ff"/>
  <text x="488" y="478" font-family="Arial, sans-serif" font-size="16" font-weight="700" fill="#6d28d9">下一步验证</text>
  <text x="488" y="502" font-family="Arial, sans-serif" font-size="14" fill="#475467">样件、测试口径、客户交流清单</text>
  <rect x="800" y="164" width="326" height="444" rx="12" fill="#f9fafb" stroke="#d9e1ec"/>
  <text x="828" y="206" font-family="Arial, sans-serif" font-size="20" font-weight="700" fill="#111827">产品动作</text>
  <rect x="828" y="248" width="250" height="46" rx="8" fill="#111827"/>
  <text x="852" y="277" font-family="Arial, sans-serif" font-size="15" font-weight="700" fill="#ffffff">生成需求拆解</text>
  <rect x="828" y="322" width="250" height="46" rx="8" fill="#22c55e"/>
  <text x="852" y="351" font-family="Arial, sans-serif" font-size="15" font-weight="700" fill="#052e16">生成产品方案</text>
  <rect x="828" y="396" width="250" height="46" rx="8" fill="#e0f2fe"/>
  <text x="852" y="425" font-family="Arial, sans-serif" font-size="15" font-weight="700" fill="#075985">推送研发协同</text>
  <rect x="828" y="470" width="250" height="46" rx="8" fill="#fef3c7"/>
  <text x="852" y="499" font-family="Arial, sans-serif" font-size="15" font-weight="700" fill="#92400e">形成售前材料</text>
</svg>
