<svg width="1200" height="720" viewBox="0 0 1200 720" fill="none" xmlns="http://www.w3.org/2000/svg">
  <rect width="1200" height="720" fill="#f5f7fb"/>
  <rect x="42" y="34" width="1116" height="652" rx="18" fill="#ffffff" stroke="#d9e1ec"/>
  <text x="82" y="90" font-family="Arial, sans-serif" font-size="30" font-weight="700" fill="#111827">产品画像维护</text>
  <text x="82" y="126" font-family="Arial, sans-serif" font-size="16" fill="#667085">用模块化卡片维护我方产品线、目标客户、关键词和客户字段要求</text>
  <rect x="82" y="166" width="492" height="452" rx="12" fill="#f9fafb" stroke="#d9e1ec"/>
  <text x="112" y="210" font-family="Arial, sans-serif" font-size="22" font-weight="700" fill="#111827">产品线</text>
  <rect x="112" y="244" width="402" height="84" rx="10" fill="#ffffff" stroke="#cfd8e5"/>
  <text x="136" y="277" font-family="Arial, sans-serif" font-size="17" font-weight="700" fill="#111827">EM4 前向长距激光雷达</text>
  <text x="136" y="304" font-family="Arial, sans-serif" font-size="14" fill="#667085">高速 NOA / L3 / 远距离感知</text>
  <rect x="112" y="352" width="402" height="84" rx="10" fill="#ffffff" stroke="#cfd8e5"/>
  <text x="136" y="385" font-family="Arial, sans-serif" font-size="17" font-weight="700" fill="#111827">E1 车规量产方案</text>
  <text x="136" y="412" font-family="Arial, sans-serif" font-size="14" fill="#667085">成本、可靠性、量产交付</text>
  <rect x="112" y="470" width="174" height="44" rx="8" fill="#111827"/>
  <text x="138" y="498" font-family="Arial, sans-serif" font-size="15" font-weight="700" fill="#ffffff">新增产品</text>
  <rect x="626" y="166" width="492" height="452" rx="12" fill="#f9fafb" stroke="#d9e1ec"/>
  <text x="656" y="210" font-family="Arial, sans-serif" font-size="22" font-weight="700" fill="#111827">目标客户</text>
  <rect x="656" y="244" width="402" height="84" rx="10" fill="#ffffff" stroke="#cfd8e5"/>
  <text x="680" y="277" font-family="Arial, sans-serif" font-size="17" font-weight="700" fill="#111827">海外 L2+/L3 乘用车 OEM</text>
  <text x="680" y="304" font-family="Arial, sans-serif" font-size="14" fill="#667085">关注安全认证、成本、量产节奏</text>
  <rect x="656" y="352" width="402" height="84" rx="10" fill="#ffffff" stroke="#cfd8e5"/>
  <text x="680" y="385" font-family="Arial, sans-serif" font-size="17" font-weight="700" fill="#111827">Robotaxi / 自动驾驶运营商</text>
  <text x="680" y="412" font-family="Arial, sans-serif" font-size="14" fill="#667085">关注冗余感知、长尾场景和可靠性</text>
  <rect x="656" y="470" width="174" height="44" rx="8" fill="#22c55e"/>
  <text x="682" y="498" font-family="Arial, sans-serif" font-size="15" font-weight="700" fill="#052e16">新增客户画像</text>
</svg>
