<svg width="1200" height="720" viewBox="0 0 1200 720" fill="none" xmlns="http://www.w3.org/2000/svg">
  <rect width="1200" height="720" fill="#f5f7fb"/>
  <rect x="24" y="24" width="1152" height="672" rx="18" fill="#ffffff" stroke="#d9e1ec"/>
  <rect x="24" y="24" width="220" height="672" rx="18" fill="#101828"/>
  <text x="54" y="72" font-family="Arial, sans-serif" font-size="26" font-weight="700" fill="#ffffff">AutoSense AI</text>
  <text x="54" y="116" font-family="Arial, sans-serif" font-size="15" fill="#b8c4d6">产品决策工作台</text>
  <rect x="48" y="154" width="172" height="42" rx="10" fill="#22c55e"/>
  <text x="74" y="181" font-family="Arial, sans-serif" font-size="16" font-weight="700" fill="#052e16">工作台</text>
  <text x="60" y="240" font-family="Arial, sans-serif" font-size="15" fill="#d0d7e2">决策中心</text>
  <text x="60" y="286" font-family="Arial, sans-serif" font-size="15" fill="#d0d7e2">市场雷达</text>
  <text x="60" y="332" font-family="Arial, sans-serif" font-size="15" fill="#d0d7e2">需求分析</text>
  <text x="60" y="378" font-family="Arial, sans-serif" font-size="15" fill="#d0d7e2">产品方案</text>
  <text x="284" y="82" font-family="Arial, sans-serif" font-size="30" font-weight="700" fill="#111827">今天应该先看什么</text>
  <text x="284" y="116" font-family="Arial, sans-serif" font-size="16" fill="#667085">把市场信号、客户需求、竞品风险和产品动作放在同一张工作台</text>
  <rect x="284" y="156" width="258" height="126" rx="12" fill="#ecfdf3" stroke="#bbf7d0"/>
  <text x="312" y="199" font-family="Arial, sans-serif" font-size="18" font-weight="700" fill="#166534">高机会事件</text>
  <text x="312" y="238" font-family="Arial, sans-serif" font-size="38" font-weight="700" fill="#15803d">8</text>
  <text x="366" y="239" font-family="Arial, sans-serif" font-size="15" fill="#475467">条需要产品判断</text>
  <rect x="564" y="156" width="258" height="126" rx="12" fill="#eff6ff" stroke="#bfdbfe"/>
  <text x="592" y="199" font-family="Arial, sans-serif" font-size="18" font-weight="700" fill="#1d4ed8">客户信息完整度</text>
  <text x="592" y="238" font-family="Arial, sans-serif" font-size="38" font-weight="700" fill="#2563eb">72%</text>
  <rect x="844" y="156" width="258" height="126" rx="12" fill="#fff7ed" stroke="#fed7aa"/>
  <text x="872" y="199" font-family="Arial, sans-serif" font-size="18" font-weight="700" fill="#c2410c">待推进动作</text>
  <text x="872" y="238" font-family="Arial, sans-serif" font-size="38" font-weight="700" fill="#ea580c">5</text>
  <rect x="284" y="324" width="390" height="266" rx="12" fill="#ffffff" stroke="#d9e1ec"/>
  <text x="312" y="364" font-family="Arial, sans-serif" font-size="20" font-weight="700" fill="#111827">核心流程</text>
  <circle cx="326" cy="414" r="12" fill="#22c55e"/><text x="354" y="420" font-family="Arial, sans-serif" font-size="16" fill="#344054">自动抓取市场情报</text>
  <circle cx="326" cy="462" r="12" fill="#38bdf8"/><text x="354" y="468" font-family="Arial, sans-serif" font-size="16" fill="#344054">生成机会与需求拆解</text>
  <circle cx="326" cy="510" r="12" fill="#f97316"/><text x="354" y="516" font-family="Arial, sans-serif" font-size="16" fill="#344054">对齐竞品和我方产品线</text>
  <circle cx="326" cy="558" r="12" fill="#8b5cf6"/><text x="354" y="564" font-family="Arial, sans-serif" font-size="16" fill="#344054">输出方案和协同任务</text>
  <rect x="712" y="324" width="390" height="266" rx="12" fill="#ffffff" stroke="#d9e1ec"/>
  <text x="740" y="364" font-family="Arial, sans-serif" font-size="20" font-weight="700" fill="#111827">当前推荐动作</text>
  <rect x="740" y="398" width="300" height="42" rx="8" fill="#f2f4f7"/>
  <text x="760" y="425" font-family="Arial, sans-serif" font-size="15" fill="#344054">为海外 L3 客户补齐验收指标</text>
  <rect x="740" y="458" width="280" height="42" rx="8" fill="#f2f4f7"/>
  <text x="760" y="485" font-family="Arial, sans-serif" font-size="15" fill="#344054">生成竞品 Battlecard</text>
  <rect x="740" y="518" width="330" height="42" rx="8" fill="#f2f4f7"/>
  <text x="760" y="545" font-family="Arial, sans-serif" font-size="15" fill="#344054">推送售前技术交流材料清单</text>
</svg>
